<?xml version="1.0" standalone="no"?><!-- Generator: Gravit.io --><svg xmlns="http://www.w3.org/2000/svg" xmlns:xlink="http://www.w3.org/1999/xlink" style="isolation:isolate" viewBox="120 167.948 1057 361.052" width="1057" height="361.052"><path d=" M 467.711 401.446 L 467.711 401.446 L 467.711 401.446 Q 467.711 381.183 477.344 370.304 L 477.344 370.304 L 477.344 370.304 Q 486.977 359.426 505.412 359.426 L 505.412 359.426 L 505.412 359.426 Q 523.682 359.426 533.398 370.304 L 533.398 370.304 L 533.398 370.304 Q 543.114 381.183 543.114 401.446 L 543.114 401.446 L 543.114 401.446 Q 543.114 421.708 533.232 432.67 L 533.232 432.67 L 533.232 432.67 Q 523.349 443.632 505.412 443.632 L 505.412 443.632 L 505.412 443.632 Q 487.143 443.632 477.427 432.587 L 477.427 432.587 L 477.427 432.587 Q 467.711 421.542 467.711 401.446 Z  M 675.485 472.198 L 675.485 472.198 L 675.485 472.198 Q 686.778 487.478 697.74 495.866 L 697.74 495.866 L 697.74 495.866 Q 708.702 504.253 716.01 504.253 L 716.01 504.253 L 716.01 504.253 Q 725.144 504.253 735.608 500.765 L 735.608 500.765 L 735.608 524.682 L 735.608 524.682 Q 727.304 529 713.186 529 L 713.186 529 L 713.186 529 Q 698.072 529 684.204 519.201 L 684.204 519.201 L 684.204 519.201 Q 670.336 509.402 655.72 490.302 L 655.72 490.302 L 655.72 490.302 Q 640.44 509.9 626.406 519.45 L 626.406 519.45 L 626.406 519.45 Q 612.372 529 597.59 529 L 597.59 529 L 597.59 529 Q 583.805 529 574.836 524.682 L 574.836 524.682 L 574.836 500.765 L 574.836 500.765 Q 577.161 501.928 583.307 503.091 L 583.307 503.091 L 583.307 503.091 Q 589.452 504.253 593.106 504.253 L 593.106 504.253 L 593.106 504.253 Q 602.573 504.253 612.787 496.53 L 612.787 496.53 L 612.787 496.53 Q 623.001 488.807 635.292 472.198 L 635.292 472.198 L 635.292 472.198 Q 614.697 450.441 605.147 432.255 L 605.147 432.255 L 605.147 432.255 Q 595.597 414.068 595.597 397.46 L 595.597 397.46 L 595.597 397.46 Q 595.597 372.547 612.206 356.602 L 612.206 356.602 L 612.206 356.602 Q 628.814 340.658 655.72 340.658 L 655.72 340.658 L 655.72 340.658 Q 682.46 340.658 699.069 356.519 L 699.069 356.519 L 699.069 356.519 Q 715.678 372.381 715.678 397.46 L 715.678 397.46 L 715.678 397.46 Q 715.678 429.514 675.485 472.198 Z  M 767.33 401.446 L 767.33 401.446 L 767.33 401.446 Q 767.33 381.183 776.963 370.304 L 776.963 370.304 L 776.963 370.304 Q 786.596 359.426 805.032 359.426 L 805.032 359.426 L 805.032 359.426 Q 823.301 359.426 833.018 370.304 L 833.018 370.304 L 833.018 370.304 Q 842.734 381.183 842.734 401.446 L 842.734 401.446 L 842.734 401.446 Q 842.734 421.708 832.851 432.67 L 832.851 432.67 L 832.851 432.67 Q 822.969 443.632 805.032 443.632 L 805.032 443.632 L 805.032 443.632 Q 786.762 443.632 777.046 432.587 L 777.046 432.587 L 777.046 432.587 Q 767.33 421.542 767.33 401.446 Z  M 941.057 525.678 L 911.161 525.678 L 911.161 402.276 L 911.161 402.276 Q 940.226 393.307 957.333 374.706 L 957.333 374.706 L 957.333 374.706 Q 974.44 356.104 974.44 331.523 L 974.44 331.523 L 974.44 331.523 Q 974.44 290.334 932.586 290.334 L 932.586 290.334 L 932.586 290.334 Q 920.794 290.334 907.756 294.818 L 907.756 294.818 L 907.756 294.818 Q 894.719 299.303 884.255 306.942 L 884.255 306.942 L 873.127 284.521 L 873.127 284.521 Q 899.037 265.421 933.915 265.421 L 933.915 265.421 L 933.915 265.421 Q 967.963 265.421 986.481 282.362 L 986.481 282.362 L 986.481 282.362 Q 1005 299.303 1005 330.361 L 1005 330.361 L 1005 330.361 Q 1005 358.097 988.474 380.768 L 988.474 380.768 L 988.474 380.768 Q 971.949 403.439 941.057 417.888 L 941.057 417.888 L 941.057 525.678 Z  M 369.387 525.678 L 399.283 525.678 L 399.283 402.276 L 399.283 402.276 Q 370.218 393.307 353.111 374.706 L 353.111 374.706 L 353.111 374.706 Q 336.004 356.104 336.004 331.523 L 336.004 331.523 L 336.004 331.523 Q 336.004 290.334 377.858 290.334 L 377.858 290.334 L 377.858 290.334 Q 389.65 290.334 402.688 294.818 L 402.688 294.818 L 402.688 294.818 Q 415.725 299.303 426.189 306.942 L 426.189 306.942 L 437.317 284.521 L 437.317 284.521 Q 411.407 265.421 376.529 265.421 L 376.529 265.421 L 376.529 265.421 Q 342.481 265.421 323.963 282.362 L 323.963 282.362 L 323.963 282.362 Q 305.444 299.303 305.444 330.361 L 305.444 330.361 L 305.444 330.361 Q 305.444 358.097 321.97 380.768 L 321.97 380.768 L 321.97 380.768 Q 338.495 403.439 369.387 417.888 L 369.387 417.888 L 369.387 525.678 Z " fill-rule="evenodd" fill="rgb(66,66,66)"/><path d=" M 1018.154 257.019 L 1025.727 237.971 L 1025.727 237.971 Q 1041.452 232.933 1052.287 225.342 L 1052.287 225.342 L 1052.287 225.342 Q 1063.121 217.751 1067.653 206.352 L 1067.653 206.352 L 1067.653 206.352 Q 1070.158 200.053 1068.709 195.395 L 1068.709 195.395 L 1068.709 195.395 Q 1067.261 190.737 1061.861 188.591 L 1061.861 188.591 L 1061.861 188.591 Q 1057.062 186.682 1053.289 188.309 L 1053.289 188.309 L 1053.289 188.309 Q 1049.516 189.935 1047.667 194.585 L 1047.667 194.585 L 1047.667 194.585 Q 1046.176 198.334 1045.916 202.921 L 1045.916 202.921 L 1025.707 199.576 L 1025.707 199.576 Q 1025.993 192.741 1028.319 186.892 L 1028.319 186.892 L 1028.319 186.892 Q 1033.388 174.143 1044.139 169.819 L 1044.139 169.819 L 1044.139 169.819 Q 1054.89 165.496 1069.139 171.161 L 1069.139 171.161 L 1069.139 171.161 Q 1083.837 177.005 1088.747 188.25 L 1088.747 188.25 L 1088.747 188.25 Q 1093.655 199.494 1087.871 214.043 L 1087.871 214.043 L 1087.871 214.043 Q 1082.444 227.692 1071.057 236.018 L 1071.057 236.018 L 1071.057 236.018 Q 1059.67 244.344 1042.296 249.596 L 1042.296 249.596 L 1036.452 264.295 L 1018.154 257.019 Z  M 1005 287.919 L 1012.931 267.97 L 1033.03 275.961 L 1025.098 295.91 L 1005 287.919 Z " fill-rule="evenodd" fill="rgb(66,66,66)"/><path d=" M 1104.154 282.11 L 1111.727 263.061 L 1111.727 263.061 Q 1127.452 258.023 1138.287 250.432 L 1138.287 250.432 L 1138.287 250.432 Q 1149.121 242.842 1153.653 231.443 L 1153.653 231.443 L 1153.653 231.443 Q 1156.158 225.143 1154.709 220.486 L 1154.709 220.486 L 1154.709 220.486 Q 1153.261 215.828 1147.862 213.681 L 1147.862 213.681 L 1147.862 213.681 Q 1143.062 211.773 1139.289 213.399 L 1139.289 213.399 L 1139.289 213.399 Q 1135.516 215.025 1133.667 219.675 L 1133.667 219.675 L 1133.667 219.675 Q 1132.176 223.425 1131.916 228.011 L 1131.916 228.011 L 1111.707 224.666 L 1111.707 224.666 Q 1111.993 217.832 1114.319 211.982 L 1114.319 211.982 L 1114.319 211.982 Q 1119.388 199.233 1130.139 194.91 L 1130.139 194.91 L 1130.139 194.91 Q 1140.89 190.586 1155.139 196.252 L 1155.139 196.252 L 1155.139 196.252 Q 1169.837 202.096 1174.747 213.34 L 1174.747 213.34 L 1174.747 213.34 Q 1179.655 224.585 1173.871 239.134 L 1173.871 239.134 L 1173.871 239.134 Q 1168.444 252.783 1157.057 261.109 L 1157.057 261.109 L 1157.057 261.109 Q 1145.67 269.435 1128.296 274.686 L 1128.296 274.686 L 1122.452 289.385 L 1104.154 282.11 Z  M 1091 313.009 L 1098.931 293.061 L 1119.03 301.052 L 1111.098 321 L 1091 313.009 Z " fill-rule="evenodd" fill="rgb(159,159,159)"/><path d=" M 249.892 300.579 L 243.356 281.15 L 243.356 281.15 Q 252.097 267.141 255.456 254.345 L 255.456 254.345 L 255.456 254.345 Q 258.816 241.55 254.905 229.923 L 254.905 229.923 L 254.905 229.923 Q 252.744 223.498 248.627 220.881 L 248.627 220.881 L 248.627 220.881 Q 244.511 218.263 239.004 220.116 L 239.004 220.116 L 239.004 220.116 Q 234.109 221.762 232.281 225.442 L 232.281 225.442 L 232.281 225.442 Q 230.453 229.122 232.049 233.865 L 232.049 233.865 L 232.049 233.865 Q 233.335 237.69 236.102 241.357 L 236.102 241.357 L 218.521 251.869 L 218.521 251.869 Q 214.321 246.47 212.314 240.503 L 212.314 240.503 L 212.314 240.503 Q 207.94 227.499 213.348 217.251 L 213.348 217.251 L 213.348 217.251 Q 218.756 207.002 233.289 202.113 L 233.289 202.113 L 233.289 202.113 Q 248.282 197.071 259.296 202.476 L 259.296 202.476 L 259.296 202.476 Q 270.31 207.882 275.302 222.722 L 275.302 222.722 L 275.302 222.722 Q 279.985 236.643 276.679 250.357 L 276.679 250.357 L 276.679 250.357 Q 273.373 264.071 263.513 279.308 L 263.513 279.308 L 268.556 294.301 L 249.892 300.579 Z  M 259.83 332.657 L 252.986 312.31 L 273.486 305.414 L 280.33 325.761 L 259.83 332.657 Z " fill-rule="evenodd" fill="rgb(66,66,66)"/><path d=" M 156.944 318.217 L 151.118 298.563 L 151.118 298.563 Q 160.362 284.88 164.183 272.215 L 164.183 272.215 L 164.183 272.215 Q 168.005 259.551 164.518 247.79 L 164.518 247.79 L 164.518 247.79 Q 162.592 241.29 158.573 238.525 L 158.573 238.525 L 158.573 238.525 Q 154.555 235.76 148.984 237.411 L 148.984 237.411 L 148.984 237.411 Q 144.032 238.879 142.072 242.49 L 142.072 242.49 L 142.072 242.49 Q 140.112 246.102 141.534 250.899 L 141.534 250.899 L 141.534 250.899 Q 142.681 254.768 145.313 258.533 L 145.313 258.533 L 127.362 268.4 L 127.362 268.4 Q 123.361 262.852 121.571 256.817 L 121.571 256.817 L 121.571 256.817 Q 117.672 243.663 123.448 233.617 L 123.448 233.617 L 123.448 233.617 Q 129.225 223.572 143.926 219.214 L 143.926 219.214 L 143.926 219.214 Q 159.092 214.718 169.903 220.52 L 169.903 220.52 L 169.903 220.52 Q 180.714 226.322 185.164 241.333 L 185.164 241.333 L 185.164 241.333 Q 189.338 255.415 185.537 269 L 185.537 269 L 185.537 269 Q 181.735 282.585 171.328 297.454 L 171.328 297.454 L 175.824 312.62 L 156.944 318.217 Z  M 165.713 350.634 L 159.611 330.052 L 180.348 323.905 L 186.449 344.487 L 165.713 350.634 Z " fill-rule="evenodd" fill="rgb(159,159,159)"/></svg>