<?xml version="1.0" encoding="UTF-8" standalone="no"?>
<!-- Generator: Gravit.io -->
<svg xmlns="http://www.w3.org/2000/svg" xmlns:xlink="http://www.w3.org/1999/xlink" style="isolation:isolate" viewBox="0 0 118.96 30" width="118.96pt" height="30pt"><path d=" M 86.931 24 L 86.931 7.8 L 90.411 7.8 L 90.411 7.8 Q 92.531 7.8 93.451 8.85 L 93.451 8.85 L 93.451 8.85 Q 94.371 9.9 94.371 11.84 L 94.371 11.84 L 94.371 11.84 Q 94.371 13.16 93.891 14.1 L 93.891 14.1 L 93.891 14.1 Q 93.411 15.04 92.311 15.26 L 92.311 15.26 L 92.311 15.26 Q 93.631 15.62 94.191 16.72 L 94.191 16.72 L 94.191 16.72 Q 94.751 17.82 94.751 19.32 L 94.751 19.32 L 94.751 19.32 Q 94.751 21.5 93.901 22.75 L 93.901 22.75 L 93.901 22.75 Q 93.051 24 90.931 24 L 90.931 24 L 86.931 24 L 86.931 24 Z  M 88.451 14.78 L 90.651 14.78 L 90.651 14.78 Q 91.951 14.78 92.471 14.03 L 92.471 14.03 L 92.471 14.03 Q 92.991 13.28 92.991 11.84 L 92.991 11.84 L 92.991 11.84 Q 92.991 10.82 92.721 10.2 L 92.721 10.2 L 92.721 10.2 Q 92.451 9.58 91.781 9.28 L 91.781 9.28 L 91.781 9.28 Q 91.111 8.98 89.891 8.98 L 89.891 8.98 L 88.451 8.98 L 88.451 14.78 L 88.451 14.78 Z  M 88.451 22.86 L 90.631 22.86 L 90.631 22.86 Q 91.671 22.86 92.241 22.49 L 92.241 22.49 L 92.241 22.49 Q 92.811 22.12 93.041 21.36 L 93.041 21.36 L 93.041 21.36 Q 93.271 20.6 93.271 19.32 L 93.271 19.32 L 93.271 19.32 Q 93.271 15.96 90.671 15.96 L 90.671 15.96 L 88.451 15.96 L 88.451 22.86 L 88.451 22.86 Z  M 96.871 24 L 96.871 7.8 L 98.331 7.8 L 98.331 24 L 96.871 24 L 96.871 24 Z  M 103.571 24.18 L 103.571 24.18 Q 101.851 24.18 101.171 23.11 L 101.171 23.11 L 101.171 23.11 Q 100.491 22.04 100.491 19.82 L 100.491 19.82 L 100.491 16.62 L 100.491 16.62 Q 100.491 14.4 101.171 13.33 L 101.171 13.33 L 101.171 13.33 Q 101.851 12.26 103.571 12.26 L 103.571 12.26 L 103.571 12.26 Q 105.311 12.26 105.991 13.33 L 105.991 13.33 L 105.991 13.33 Q 106.671 14.4 106.671 16.62 L 106.671 16.62 L 106.671 19.82 L 106.671 19.82 Q 106.671 22.04 105.991 23.11 L 105.991 23.11 L 105.991 23.11 Q 105.311 24.18 103.571 24.18 L 103.571 24.18 L 103.571 24.18 Z  M 103.571 23.08 L 103.571 23.08 Q 104.291 23.08 104.641 22.7 L 104.641 22.7 L 104.641 22.7 Q 104.991 22.32 105.091 21.67 L 105.091 21.67 L 105.091 21.67 Q 105.191 21.02 105.191 19.9 L 105.191 19.9 L 105.191 16.54 L 105.191 16.54 Q 105.191 15.42 105.091 14.77 L 105.091 14.77 L 105.091 14.77 Q 104.991 14.12 104.641 13.74 L 104.641 13.74 L 104.641 13.74 Q 104.291 13.36 103.571 13.36 L 103.571 13.36 L 103.571 13.36 Q 102.851 13.36 102.511 13.74 L 102.511 13.74 L 102.511 13.74 Q 102.171 14.12 102.071 14.77 L 102.071 14.77 L 102.071 14.77 Q 101.971 15.42 101.971 16.54 L 101.971 16.54 L 101.971 19.9 L 101.971 19.9 Q 101.971 21.02 102.071 21.67 L 102.071 21.67 L 102.071 21.67 Q 102.171 22.32 102.511 22.7 L 102.511 22.7 L 102.511 22.7 Q 102.851 23.08 103.571 23.08 L 103.571 23.08 L 103.571 23.08 Z  M 111.631 27.8 L 111.631 27.8 Q 109.851 27.8 108.881 27.28 L 108.881 27.28 L 108.881 27.28 Q 107.911 26.76 107.911 25.7 L 107.911 25.7 L 107.911 25.7 Q 107.911 24.9 108.461 24.24 L 108.461 24.24 L 108.461 24.24 Q 109.011 23.58 109.811 23.18 L 109.811 23.18 L 109.811 23.18 Q 108.531 22.84 108.531 21.92 L 108.531 21.92 L 108.531 21.92 Q 108.531 21.36 108.861 20.89 L 108.861 20.89 L 108.861 20.89 Q 109.191 20.42 109.911 19.82 L 109.911 19.82 L 109.911 19.82 Q 109.151 19.26 108.801 18.39 L 108.801 18.39 L 108.801 18.39 Q 108.451 17.52 108.451 16.3 L 108.451 16.3 L 108.451 16.3 Q 108.451 14.54 109.271 13.4 L 109.271 13.4 L 109.271 13.4 Q 110.091 12.26 111.691 12.26 L 111.691 12.26 L 111.691 12.26 Q 113.451 12.26 114.171 13.7 L 114.171 13.7 L 114.171 13.7 Q 114.351 13.38 114.801 12.99 L 114.801 12.99 L 114.801 12.99 Q 115.251 12.6 115.731 12.4 L 115.731 12.4 L 116.031 12.3 L 116.431 13.32 L 116.431 13.32 Q 115.951 13.4 115.361 13.72 L 115.361 13.72 L 115.361 13.72 Q 114.771 14.04 114.531 14.32 L 114.531 14.32 L 114.531 14.32 Q 114.671 14.7 114.781 15.31 L 114.781 15.31 L 114.781 15.31 Q 114.891 15.92 114.891 16.34 L 114.891 16.34 L 114.891 16.34 Q 114.891 18.2 114.131 19.29 L 114.131 19.29 L 114.131 19.29 Q 113.371 20.38 111.711 20.38 L 111.711 20.38 L 111.711 20.38 Q 111.411 20.38 111.081 20.33 L 111.081 20.33 L 111.081 20.33 Q 110.751 20.28 110.531 20.2 L 110.531 20.2 L 110.531 20.2 Q 109.751 20.98 109.751 21.52 L 109.751 21.52 L 109.751 21.52 Q 109.751 21.8 109.981 21.95 L 109.981 21.95 L 109.981 21.95 Q 110.211 22.1 110.711 22.16 L 110.711 22.16 L 112.551 22.44 L 112.551 22.44 Q 113.991 22.66 114.721 23.31 L 114.721 23.31 L 114.721 23.31 Q 115.451 23.96 115.451 25.12 L 115.451 25.12 L 115.451 25.12 Q 115.451 26.46 114.421 27.13 L 114.421 27.13 L 114.421 27.13 Q 113.391 27.8 111.631 27.8 L 111.631 27.8 L 111.631 27.8 Z  M 111.711 19.32 L 111.711 19.32 Q 112.851 19.32 113.231 18.48 L 113.231 18.48 L 113.231 18.48 Q 113.611 17.64 113.611 16.3 L 113.611 16.3 L 113.611 16.3 Q 113.611 13.3 111.711 13.3 L 111.711 13.3 L 111.711 13.3 Q 110.611 13.3 110.191 14.18 L 110.191 14.18 L 110.191 14.18 Q 109.771 15.06 109.771 16.3 L 109.771 16.3 L 109.771 16.3 Q 109.771 19.32 111.711 19.32 L 111.711 19.32 L 111.711 19.32 Z  M 111.691 26.62 L 111.691 26.62 Q 112.911 26.62 113.601 26.26 L 113.601 26.26 L 113.601 26.26 Q 114.291 25.9 114.291 25.14 L 114.291 25.14 L 114.291 25.14 Q 114.291 24.5 113.841 24.14 L 113.841 24.14 L 113.841 24.14 Q 113.391 23.78 112.111 23.58 L 112.111 23.58 L 110.631 23.38 L 110.631 23.38 Q 109.971 23.86 109.561 24.31 L 109.561 24.31 L 109.561 24.31 Q 109.151 24.76 109.151 25.34 L 109.151 25.34 L 109.151 25.34 Q 109.151 26 109.771 26.31 L 109.771 26.31 L 109.771 26.31 Q 110.391 26.62 111.691 26.62 L 111.691 26.62 L 111.691 26.62 Z  M 5.8 24.18 L 5.8 24.18 Q 3.4 24.18 2.42 22.75 L 2.42 22.75 L 2.42 22.75 Q 1.44 21.32 1.44 18.8 L 1.44 18.8 L 1.44 13.08 L 1.44 13.08 Q 1.44 10.42 2.4 9.04 L 2.4 9.04 L 2.4 9.04 Q 3.36 7.66 5.8 7.66 L 5.8 7.66 L 5.8 7.66 Q 7.98 7.66 8.93 8.84 L 8.93 8.84 L 8.93 8.84 Q 9.88 10.02 9.88 12.32 L 9.88 12.32 L 9.88 13.6 L 7.74 13.6 L 7.74 12.46 L 7.74 12.46 Q 7.74 11.34 7.64 10.74 L 7.64 10.74 L 7.64 10.74 Q 7.54 10.14 7.13 9.78 L 7.13 9.78 L 7.13 9.78 Q 6.72 9.42 5.82 9.42 L 5.82 9.42 L 5.82 9.42 Q 4.9 9.42 4.45 9.81 L 4.45 9.81 L 4.45 9.81 Q 4 10.2 3.86 10.89 L 3.86 10.89 L 3.86 10.89 Q 3.72 11.58 3.72 12.74 L 3.72 12.74 L 3.72 19.16 L 3.72 19.16 Q 3.72 20.4 3.92 21.1 L 3.92 21.1 L 3.92 21.1 Q 4.12 21.8 4.57 22.1 L 4.57 22.1 L 4.57 22.1 Q 5.02 22.4 5.82 22.4 L 5.82 22.4 L 5.82 22.4 Q 6.68 22.4 7.1 22.02 L 7.1 22.02 L 7.1 22.02 Q 7.52 21.64 7.63 20.98 L 7.63 20.98 L 7.63 20.98 Q 7.74 20.32 7.74 19.18 L 7.74 19.18 L 7.74 17.98 L 9.88 17.98 L 9.88 19.18 L 9.88 19.18 Q 9.88 21.6 8.97 22.89 L 8.97 22.89 L 8.97 22.89 Q 8.06 24.18 5.8 24.18 L 5.8 24.18 L 5.8 24.18 Z  M 13.94 24.16 L 13.94 24.16 Q 13.28 24.16 12.75 23.78 L 12.75 23.78 L 12.75 23.78 Q 12.22 23.4 11.92 22.78 L 11.92 22.78 L 11.92 22.78 Q 11.62 22.16 11.62 21.48 L 11.62 21.48 L 11.62 21.48 Q 11.62 20.12 12.2 19.27 L 12.2 19.27 L 12.2 19.27 Q 12.78 18.42 13.68 17.92 L 13.68 17.92 L 13.68 17.92 Q 14.58 17.42 16.18 16.78 L 16.18 16.78 L 16.18 15.96 L 16.18 15.96 Q 16.18 14.82 15.95 14.35 L 15.95 14.35 L 15.95 14.35 Q 15.72 13.88 15.02 13.88 L 15.02 13.88 L 15.02 13.88 Q 13.8 13.88 13.8 15.52 L 13.8 15.52 L 13.8 16.1 L 11.68 16.02 L 11.68 16.02 Q 11.72 14.1 12.56 13.19 L 12.56 13.19 L 12.56 13.19 Q 13.4 12.28 15.16 12.28 L 15.16 12.28 L 15.16 12.28 Q 16.82 12.28 17.57 13.19 L 17.57 13.19 L 17.57 13.19 Q 18.32 14.1 18.32 15.94 L 18.32 15.94 L 18.32 21.22 L 18.32 21.22 Q 18.32 22.52 18.52 24 L 18.52 24 L 16.56 24 L 16.56 24 Q 16.34 22.86 16.28 22.3 L 16.28 22.3 L 16.28 22.3 Q 16.04 23.08 15.45 23.62 L 15.45 23.62 L 15.45 23.62 Q 14.86 24.16 13.94 24.16 L 13.94 24.16 L 13.94 24.16 Z  M 14.78 22.32 L 14.78 22.32 Q 15.2 22.32 15.6 21.99 L 15.6 21.99 L 15.6 21.99 Q 16 21.66 16.18 21.36 L 16.18 21.36 L 16.18 18.08 L 16.18 18.08 Q 15.32 18.56 14.85 18.91 L 14.85 18.91 L 14.85 18.91 Q 14.38 19.26 14.07 19.72 L 14.07 19.72 L 14.07 19.72 Q 13.76 20.18 13.76 20.82 L 13.76 20.82 L 13.76 20.82 Q 13.76 21.54 14.02 21.93 L 14.02 21.93 L 14.02 21.93 Q 14.28 22.32 14.78 22.32 L 14.78 22.32 L 14.78 22.32 Z  M 23.3 24.16 L 23.3 24.16 Q 20.8 24.16 20.8 21.4 L 20.8 21.4 L 20.8 13.86 L 19.58 13.86 L 19.58 12.44 L 20.8 12.44 L 20.8 9.06 L 22.94 9.06 L 22.94 12.44 L 24.8 12.44 L 24.8 13.86 L 22.94 13.86 L 22.94 21.26 L 22.94 21.26 Q 22.94 21.96 23.16 22.24 L 23.16 22.24 L 23.16 22.24 Q 23.38 22.52 24 22.52 L 24 22.52 L 24 22.52 Q 24.4 22.52 24.78 22.46 L 24.78 22.46 L 24.78 24.04 L 24.78 24.04 Q 23.98 24.16 23.3 24.16 L 23.3 24.16 L 23.3 24.16 Z  M 30.38 24.18 L 30.38 24.18 Q 28.34 24.18 27.27 22.92 L 27.27 22.92 L 27.27 22.92 Q 26.2 21.66 26.08 19.46 L 26.08 19.46 L 28.08 18.92 L 28.08 18.92 Q 28.18 20.48 28.69 21.44 L 28.69 21.44 L 28.69 21.44 Q 29.2 22.4 30.38 22.4 L 30.38 22.4 L 30.38 22.4 Q 31.26 22.4 31.71 21.91 L 31.71 21.91 L 31.71 21.91 Q 32.16 21.42 32.16 20.5 L 32.16 20.5 L 32.16 20.5 Q 32.16 19.5 31.74 18.84 L 31.74 18.84 L 31.74 18.84 Q 31.32 18.18 30.4 17.38 L 30.4 17.38 L 27.68 14.98 L 27.68 14.98 Q 26.86 14.26 26.49 13.43 L 26.49 13.43 L 26.49 13.43 Q 26.12 12.6 26.12 11.4 L 26.12 11.4 L 26.12 11.4 Q 26.12 9.62 27.14 8.64 L 27.14 8.64 L 27.14 8.64 Q 28.16 7.66 29.92 7.66 L 29.92 7.66 L 29.92 7.66 Q 31.84 7.66 32.82 8.68 L 32.82 8.68 L 32.82 8.68 Q 33.8 9.7 34 11.84 L 34 11.84 L 32.08 12.36 L 32.08 12.36 Q 31.98 10.94 31.53 10.17 L 31.53 10.17 L 31.53 10.17 Q 31.08 9.4 29.92 9.4 L 29.92 9.4 L 29.92 9.4 Q 29.06 9.4 28.6 9.85 L 28.6 9.85 L 28.6 9.85 Q 28.14 10.3 28.14 11.18 L 28.14 11.18 L 28.14 11.18 Q 28.14 11.9 28.38 12.39 L 28.38 12.39 L 28.38 12.39 Q 28.62 12.88 29.2 13.38 L 29.2 13.38 L 31.94 15.78 L 31.94 15.78 Q 33 16.72 33.63 17.82 L 33.63 17.82 L 33.63 17.82 Q 34.26 18.92 34.26 20.32 L 34.26 20.32 L 34.26 20.32 Q 34.26 22.1 33.18 23.14 L 33.18 23.14 L 33.18 23.14 Q 32.1 24.18 30.38 24.18 L 30.38 24.18 L 30.38 24.18 Z  M 39.02 24.16 L 39.02 24.16 Q 37.18 24.16 36.41 23.07 L 36.41 23.07 L 36.41 23.07 Q 35.64 21.98 35.64 19.9 L 35.64 19.9 L 35.64 16.54 L 35.64 16.54 Q 35.64 14.46 36.41 13.37 L 36.41 13.37 L 36.41 13.37 Q 37.18 12.28 39.02 12.28 L 39.02 12.28 L 39.02 12.28 Q 40.84 12.28 41.61 13.37 L 41.61 13.37 L 41.61 13.37 Q 42.38 14.46 42.38 16.54 L 42.38 16.54 L 42.38 19.9 L 42.38 19.9 Q 42.38 21.98 41.61 23.07 L 41.61 23.07 L 41.61 23.07 Q 40.84 24.16 39.02 24.16 L 39.02 24.16 L 39.02 24.16 Z  M 39.02 22.58 L 39.02 22.58 Q 39.6 22.58 39.86 22.24 L 39.86 22.24 L 39.86 22.24 Q 40.12 21.9 40.18 21.4 L 40.18 21.4 L 40.18 21.4 Q 40.24 20.9 40.24 20.04 L 40.24 20.04 L 40.24 16.42 L 40.24 16.42 Q 40.24 15.56 40.18 15.05 L 40.18 15.05 L 40.18 15.05 Q 40.12 14.54 39.86 14.2 L 39.86 14.2 L 39.86 14.2 Q 39.6 13.86 39.02 13.86 L 39.02 13.86 L 39.02 13.86 Q 38.44 13.86 38.17 14.2 L 38.17 14.2 L 38.17 14.2 Q 37.9 14.54 37.84 15.05 L 37.84 15.05 L 37.84 15.05 Q 37.78 15.56 37.78 16.42 L 37.78 16.42 L 37.78 20.04 L 37.78 20.04 Q 37.78 20.9 37.84 21.4 L 37.84 21.4 L 37.84 21.4 Q 37.9 21.9 38.17 22.24 L 38.17 22.24 L 38.17 22.24 Q 38.44 22.58 39.02 22.58 L 39.02 22.58 L 39.02 22.58 Z  M 46 24.16 L 46 24.16 Q 45.06 24.16 44.66 23.48 L 44.66 23.48 L 44.66 23.48 Q 44.26 22.8 44.26 21.8 L 44.26 21.8 L 44.26 12.44 L 46.4 12.44 L 46.4 21.16 L 46.4 21.16 Q 46.4 21.82 46.6 22.15 L 46.6 22.15 L 46.6 22.15 Q 46.8 22.48 47.32 22.48 L 47.32 22.48 L 47.32 22.48 Q 47.96 22.48 48.82 21.76 L 48.82 21.76 L 48.82 12.44 L 50.96 12.44 L 50.96 24 L 48.82 24 L 48.82 22.86 L 48.82 22.86 Q 47.44 24.16 46 24.16 L 46 24.16 L 46 24.16 Z  M 53.2 24 L 53.2 12.44 L 55.34 12.44 L 55.34 14.08 L 55.34 14.08 Q 55.94 13.1 56.57 12.7 L 56.57 12.7 L 56.57 12.7 Q 57.2 12.3 57.9 12.3 L 57.9 12.3 L 57.9 12.3 Q 58.08 12.3 58.24 12.32 L 58.24 12.32 L 58.24 14.68 L 58.24 14.68 Q 57.6 14.44 57.06 14.44 L 57.06 14.44 L 57.06 14.44 Q 56.54 14.44 56.13 14.69 L 56.13 14.69 L 56.13 14.69 Q 55.72 14.94 55.34 15.56 L 55.34 15.56 L 55.34 24 L 53.2 24 L 53.2 24 Z  M 62.72 24.16 L 62.72 24.16 Q 61.36 24.16 60.62 23.61 L 60.62 23.61 L 60.62 23.61 Q 59.88 23.06 59.61 22.07 L 59.61 22.07 L 59.61 22.07 Q 59.34 21.08 59.34 19.56 L 59.34 19.56 L 59.34 16.9 L 59.34 16.9 Q 59.34 15.34 59.61 14.34 L 59.61 14.34 L 59.61 14.34 Q 59.88 13.34 60.62 12.81 L 60.62 12.81 L 60.62 12.81 Q 61.36 12.28 62.72 12.28 L 62.72 12.28 L 62.72 12.28 Q 63.96 12.28 64.65 12.68 L 64.65 12.68 L 64.65 12.68 Q 65.34 13.08 65.61 13.87 L 65.61 13.87 L 65.61 13.87 Q 65.88 14.66 65.88 15.92 L 65.88 15.92 L 65.88 16.6 L 63.94 16.6 L 63.94 15.9 L 63.94 15.9 Q 63.94 14.76 63.69 14.31 L 63.69 14.31 L 63.69 14.31 Q 63.44 13.86 62.74 13.86 L 62.74 13.86 L 62.74 13.86 Q 62.2 13.86 61.94 14.1 L 61.94 14.1 L 61.94 14.1 Q 61.68 14.34 61.58 14.88 L 61.58 14.88 L 61.58 14.88 Q 61.48 15.42 61.48 16.46 L 61.48 16.46 L 61.48 20.1 L 61.48 20.1 Q 61.48 21.1 61.6 21.63 L 61.6 21.63 L 61.6 21.63 Q 61.72 22.16 61.99 22.37 L 61.99 22.37 L 61.99 22.37 Q 62.26 22.58 62.76 22.58 L 62.76 22.58 L 62.76 22.58 Q 63.5 22.58 63.72 22.09 L 63.72 22.09 L 63.72 22.09 Q 63.94 21.6 63.94 20.58 L 63.94 20.58 L 63.94 19.64 L 65.88 19.64 L 65.88 20.44 L 65.88 20.44 Q 65.88 22.32 65.19 23.24 L 65.19 23.24 L 65.19 23.24 Q 64.5 24.16 62.72 24.16 L 62.72 24.16 L 62.72 24.16 Z  M 70.98 24.16 L 70.98 24.16 Q 69.64 24.16 68.9 23.65 L 68.9 23.65 L 68.9 23.65 Q 68.16 23.14 67.86 22.14 L 67.86 22.14 L 67.86 22.14 Q 67.56 21.14 67.56 19.54 L 67.56 19.54 L 67.56 16.9 L 67.56 16.9 Q 67.56 14.5 68.31 13.39 L 68.31 13.39 L 68.31 13.39 Q 69.06 12.28 70.98 12.28 L 70.98 12.28 L 70.98 12.28 Q 72.38 12.28 73.09 12.86 L 73.09 12.86 L 73.09 12.86 Q 73.8 13.44 74.03 14.49 L 74.03 14.49 L 74.03 14.49 Q 74.26 15.54 74.26 17.32 L 74.26 17.32 L 74.26 18.26 L 69.7 18.26 L 69.7 20.58 L 69.7 20.58 Q 69.7 21.64 70.01 22.11 L 70.01 22.11 L 70.01 22.11 Q 70.32 22.58 71 22.58 L 71 22.58 L 71 22.58 Q 71.68 22.58 71.92 22.11 L 71.92 22.11 L 71.92 22.11 Q 72.16 21.64 72.16 20.68 L 72.16 20.68 L 72.16 19.98 L 74.24 19.98 L 74.24 20.42 L 74.24 20.42 Q 74.24 22.24 73.46 23.2 L 73.46 23.2 L 73.46 23.2 Q 72.68 24.16 70.98 24.16 L 70.98 24.16 L 70.98 24.16 Z  M 69.7 17.1 L 72.16 17.1 L 72.16 16.06 L 72.16 16.06 Q 72.16 14.88 71.93 14.37 L 71.93 14.37 L 71.93 14.37 Q 71.7 13.86 70.96 13.86 L 70.96 13.86 L 70.96 13.86 Q 70.44 13.86 70.17 14.1 L 70.17 14.1 L 70.17 14.1 Q 69.9 14.34 69.8 14.89 L 69.8 14.89 L 69.8 14.89 Q 69.7 15.44 69.7 16.48 L 69.7 16.48 L 69.7 17.1 L 69.7 17.1 Z " fill="rgb(0,204,173)"/><line x1="80.48" y1="0.5" x2="80.48" y2="29.5" vector-effect="non-scaling-stroke" stroke-width="1" stroke="rgb(0,204,173)" stroke-linejoin="miter" stroke-linecap="square" stroke-miterlimit="3"/></svg>