<?xml version="1.0" encoding="UTF-8" standalone="no"?>
<!-- Generator: Gravit.io -->
<svg xmlns="http://www.w3.org/2000/svg" xmlns:xlink="http://www.w3.org/1999/xlink" style="isolation:isolate" viewBox="0 0 77 29.64" width="77pt" height="29.64pt"><path d=" M 5.5 24.04 L 5.5 24.04 Q 3.1 24.04 2.12 22.61 L 2.12 22.61 L 2.12 22.61 Q 1.14 21.18 1.14 18.66 L 1.14 18.66 L 1.14 12.94 L 1.14 12.94 Q 1.14 10.28 2.1 8.9 L 2.1 8.9 L 2.1 8.9 Q 3.06 7.52 5.5 7.52 L 5.5 7.52 L 5.5 7.52 Q 7.68 7.52 8.63 8.7 L 8.63 8.7 L 8.63 8.7 Q 9.58 9.88 9.58 12.18 L 9.58 12.18 L 9.58 13.46 L 7.44 13.46 L 7.44 12.32 L 7.44 12.32 Q 7.44 11.2 7.34 10.6 L 7.34 10.6 L 7.34 10.6 Q 7.24 10 6.83 9.64 L 6.83 9.64 L 6.83 9.64 Q 6.42 9.28 5.52 9.28 L 5.52 9.28 L 5.52 9.28 Q 4.6 9.28 4.15 9.67 L 4.15 9.67 L 4.15 9.67 Q 3.7 10.06 3.56 10.75 L 3.56 10.75 L 3.56 10.75 Q 3.42 11.44 3.42 12.6 L 3.42 12.6 L 3.42 19.02 L 3.42 19.02 Q 3.42 20.26 3.62 20.96 L 3.62 20.96 L 3.62 20.96 Q 3.82 21.66 4.27 21.96 L 4.27 21.96 L 4.27 21.96 Q 4.72 22.26 5.52 22.26 L 5.52 22.26 L 5.52 22.26 Q 6.38 22.26 6.8 21.88 L 6.8 21.88 L 6.8 21.88 Q 7.22 21.5 7.33 20.84 L 7.33 20.84 L 7.33 20.84 Q 7.44 20.18 7.44 19.04 L 7.44 19.04 L 7.44 17.84 L 9.58 17.84 L 9.58 19.04 L 9.58 19.04 Q 9.58 21.46 8.67 22.75 L 8.67 22.75 L 8.67 22.75 Q 7.76 24.04 5.5 24.04 L 5.5 24.04 L 5.5 24.04 Z  M 13.64 24.02 L 13.64 24.02 Q 12.98 24.02 12.45 23.64 L 12.45 23.64 L 12.45 23.64 Q 11.92 23.26 11.62 22.64 L 11.62 22.64 L 11.62 22.64 Q 11.32 22.02 11.32 21.34 L 11.32 21.34 L 11.32 21.34 Q 11.32 19.98 11.9 19.13 L 11.9 19.13 L 11.9 19.13 Q 12.48 18.28 13.38 17.78 L 13.38 17.78 L 13.38 17.78 Q 14.28 17.28 15.88 16.64 L 15.88 16.64 L 15.88 15.82 L 15.88 15.82 Q 15.88 14.68 15.65 14.21 L 15.65 14.21 L 15.65 14.21 Q 15.42 13.74 14.72 13.74 L 14.72 13.74 L 14.72 13.74 Q 13.5 13.74 13.5 15.38 L 13.5 15.38 L 13.5 15.96 L 11.38 15.88 L 11.38 15.88 Q 11.42 13.96 12.26 13.05 L 12.26 13.05 L 12.26 13.05 Q 13.1 12.14 14.86 12.14 L 14.86 12.14 L 14.86 12.14 Q 16.52 12.14 17.27 13.05 L 17.27 13.05 L 17.27 13.05 Q 18.02 13.96 18.02 15.8 L 18.02 15.8 L 18.02 21.08 L 18.02 21.08 Q 18.02 22.38 18.22 23.86 L 18.22 23.86 L 16.26 23.86 L 16.26 23.86 Q 16.04 22.72 15.98 22.16 L 15.98 22.16 L 15.98 22.16 Q 15.74 22.94 15.15 23.48 L 15.15 23.48 L 15.15 23.48 Q 14.56 24.02 13.64 24.02 L 13.64 24.02 L 13.64 24.02 Z  M 14.48 22.18 L 14.48 22.18 Q 14.9 22.18 15.3 21.85 L 15.3 21.85 L 15.3 21.85 Q 15.7 21.52 15.88 21.22 L 15.88 21.22 L 15.88 17.94 L 15.88 17.94 Q 15.02 18.42 14.55 18.77 L 14.55 18.77 L 14.55 18.77 Q 14.08 19.12 13.77 19.58 L 13.77 19.58 L 13.77 19.58 Q 13.46 20.04 13.46 20.68 L 13.46 20.68 L 13.46 20.68 Q 13.46 21.4 13.72 21.79 L 13.72 21.79 L 13.72 21.79 Q 13.98 22.18 14.48 22.18 L 14.48 22.18 L 14.48 22.18 Z  M 23 24.02 L 23 24.02 Q 20.5 24.02 20.5 21.26 L 20.5 21.26 L 20.5 13.72 L 19.28 13.72 L 19.28 12.3 L 20.5 12.3 L 20.5 8.92 L 22.64 8.92 L 22.64 12.3 L 24.5 12.3 L 24.5 13.72 L 22.64 13.72 L 22.64 21.12 L 22.64 21.12 Q 22.64 21.82 22.86 22.1 L 22.86 22.1 L 22.86 22.1 Q 23.08 22.38 23.7 22.38 L 23.7 22.38 L 23.7 22.38 Q 24.1 22.38 24.48 22.32 L 24.48 22.32 L 24.48 23.9 L 24.48 23.9 Q 23.68 24.02 23 24.02 L 23 24.02 L 23 24.02 Z  M 30.08 24.04 L 30.08 24.04 Q 28.04 24.04 26.97 22.78 L 26.97 22.78 L 26.97 22.78 Q 25.9 21.52 25.78 19.32 L 25.78 19.32 L 27.78 18.78 L 27.78 18.78 Q 27.88 20.34 28.39 21.3 L 28.39 21.3 L 28.39 21.3 Q 28.9 22.26 30.08 22.26 L 30.08 22.26 L 30.08 22.26 Q 30.96 22.26 31.41 21.77 L 31.41 21.77 L 31.41 21.77 Q 31.86 21.28 31.86 20.36 L 31.86 20.36 L 31.86 20.36 Q 31.86 19.36 31.44 18.7 L 31.44 18.7 L 31.44 18.7 Q 31.02 18.04 30.1 17.24 L 30.1 17.24 L 27.38 14.84 L 27.38 14.84 Q 26.56 14.12 26.19 13.29 L 26.19 13.29 L 26.19 13.29 Q 25.82 12.46 25.82 11.26 L 25.82 11.26 L 25.82 11.26 Q 25.82 9.48 26.84 8.5 L 26.84 8.5 L 26.84 8.5 Q 27.86 7.52 29.62 7.52 L 29.62 7.52 L 29.62 7.52 Q 31.54 7.52 32.52 8.54 L 32.52 8.54 L 32.52 8.54 Q 33.5 9.56 33.7 11.7 L 33.7 11.7 L 31.78 12.22 L 31.78 12.22 Q 31.68 10.8 31.23 10.03 L 31.23 10.03 L 31.23 10.03 Q 30.78 9.26 29.62 9.26 L 29.62 9.26 L 29.62 9.26 Q 28.76 9.26 28.3 9.71 L 28.3 9.71 L 28.3 9.71 Q 27.84 10.16 27.84 11.04 L 27.84 11.04 L 27.84 11.04 Q 27.84 11.76 28.08 12.25 L 28.08 12.25 L 28.08 12.25 Q 28.32 12.74 28.9 13.24 L 28.9 13.24 L 31.64 15.64 L 31.64 15.64 Q 32.7 16.58 33.33 17.68 L 33.33 17.68 L 33.33 17.68 Q 33.96 18.78 33.96 20.18 L 33.96 20.18 L 33.96 20.18 Q 33.96 21.96 32.88 23 L 32.88 23 L 32.88 23 Q 31.8 24.04 30.08 24.04 L 30.08 24.04 L 30.08 24.04 Z  M 38.72 24.02 L 38.72 24.02 Q 36.88 24.02 36.11 22.93 L 36.11 22.93 L 36.11 22.93 Q 35.34 21.84 35.34 19.76 L 35.34 19.76 L 35.34 16.4 L 35.34 16.4 Q 35.34 14.32 36.11 13.23 L 36.11 13.23 L 36.11 13.23 Q 36.88 12.14 38.72 12.14 L 38.72 12.14 L 38.72 12.14 Q 40.54 12.14 41.31 13.23 L 41.31 13.23 L 41.31 13.23 Q 42.08 14.32 42.08 16.4 L 42.08 16.4 L 42.08 19.76 L 42.08 19.76 Q 42.08 21.84 41.31 22.93 L 41.31 22.93 L 41.31 22.93 Q 40.54 24.02 38.72 24.02 L 38.72 24.02 L 38.72 24.02 Z  M 38.72 22.44 L 38.72 22.44 Q 39.3 22.44 39.56 22.1 L 39.56 22.1 L 39.56 22.1 Q 39.82 21.76 39.88 21.26 L 39.88 21.26 L 39.88 21.26 Q 39.94 20.76 39.94 19.9 L 39.94 19.9 L 39.94 16.28 L 39.94 16.28 Q 39.94 15.42 39.88 14.91 L 39.88 14.91 L 39.88 14.91 Q 39.82 14.4 39.56 14.06 L 39.56 14.06 L 39.56 14.06 Q 39.3 13.72 38.72 13.72 L 38.72 13.72 L 38.72 13.72 Q 38.14 13.72 37.87 14.06 L 37.87 14.06 L 37.87 14.06 Q 37.6 14.4 37.54 14.91 L 37.54 14.91 L 37.54 14.91 Q 37.48 15.42 37.48 16.28 L 37.48 16.28 L 37.48 19.9 L 37.48 19.9 Q 37.48 20.76 37.54 21.26 L 37.54 21.26 L 37.54 21.26 Q 37.6 21.76 37.87 22.1 L 37.87 22.1 L 37.87 22.1 Q 38.14 22.44 38.72 22.44 L 38.72 22.44 L 38.72 22.44 Z  M 45.7 24.02 L 45.7 24.02 Q 44.76 24.02 44.36 23.34 L 44.36 23.34 L 44.36 23.34 Q 43.96 22.66 43.96 21.66 L 43.96 21.66 L 43.96 12.3 L 46.1 12.3 L 46.1 21.02 L 46.1 21.02 Q 46.1 21.68 46.3 22.01 L 46.3 22.01 L 46.3 22.01 Q 46.5 22.34 47.02 22.34 L 47.02 22.34 L 47.02 22.34 Q 47.66 22.34 48.52 21.62 L 48.52 21.62 L 48.52 12.3 L 50.66 12.3 L 50.66 23.86 L 48.52 23.86 L 48.52 22.72 L 48.52 22.72 Q 47.14 24.02 45.7 24.02 L 45.7 24.02 L 45.7 24.02 Z  M 52.9 23.86 L 52.9 12.3 L 55.04 12.3 L 55.04 13.94 L 55.04 13.94 Q 55.64 12.96 56.27 12.56 L 56.27 12.56 L 56.27 12.56 Q 56.9 12.16 57.6 12.16 L 57.6 12.16 L 57.6 12.16 Q 57.78 12.16 57.94 12.18 L 57.94 12.18 L 57.94 14.54 L 57.94 14.54 Q 57.3 14.3 56.76 14.3 L 56.76 14.3 L 56.76 14.3 Q 56.24 14.3 55.83 14.55 L 55.83 14.55 L 55.83 14.55 Q 55.42 14.8 55.04 15.42 L 55.04 15.42 L 55.04 23.86 L 52.9 23.86 L 52.9 23.86 Z  M 62.42 24.02 L 62.42 24.02 Q 61.06 24.02 60.32 23.47 L 60.32 23.47 L 60.32 23.47 Q 59.58 22.92 59.31 21.93 L 59.31 21.93 L 59.31 21.93 Q 59.04 20.94 59.04 19.42 L 59.04 19.42 L 59.04 16.76 L 59.04 16.76 Q 59.04 15.2 59.31 14.2 L 59.31 14.2 L 59.31 14.2 Q 59.58 13.2 60.32 12.67 L 60.32 12.67 L 60.32 12.67 Q 61.06 12.14 62.42 12.14 L 62.42 12.14 L 62.42 12.14 Q 63.66 12.14 64.35 12.54 L 64.35 12.54 L 64.35 12.54 Q 65.04 12.94 65.31 13.73 L 65.31 13.73 L 65.31 13.73 Q 65.58 14.52 65.58 15.78 L 65.58 15.78 L 65.58 16.46 L 63.64 16.46 L 63.64 15.76 L 63.64 15.76 Q 63.64 14.62 63.39 14.17 L 63.39 14.17 L 63.39 14.17 Q 63.14 13.72 62.44 13.72 L 62.44 13.72 L 62.44 13.72 Q 61.9 13.72 61.64 13.96 L 61.64 13.96 L 61.64 13.96 Q 61.38 14.2 61.28 14.74 L 61.28 14.74 L 61.28 14.74 Q 61.18 15.28 61.18 16.32 L 61.18 16.32 L 61.18 19.96 L 61.18 19.96 Q 61.18 20.96 61.3 21.49 L 61.3 21.49 L 61.3 21.49 Q 61.42 22.02 61.69 22.23 L 61.69 22.23 L 61.69 22.23 Q 61.96 22.44 62.46 22.44 L 62.46 22.44 L 62.46 22.44 Q 63.2 22.44 63.42 21.95 L 63.42 21.95 L 63.42 21.95 Q 63.64 21.46 63.64 20.44 L 63.64 20.44 L 63.64 19.5 L 65.58 19.5 L 65.58 20.3 L 65.58 20.3 Q 65.58 22.18 64.89 23.1 L 64.89 23.1 L 64.89 23.1 Q 64.2 24.02 62.42 24.02 L 62.42 24.02 L 62.42 24.02 Z  M 70.68 24.02 L 70.68 24.02 Q 69.34 24.02 68.6 23.51 L 68.6 23.51 L 68.6 23.51 Q 67.86 23 67.56 22 L 67.56 22 L 67.56 22 Q 67.26 21 67.26 19.4 L 67.26 19.4 L 67.26 16.76 L 67.26 16.76 Q 67.26 14.36 68.01 13.25 L 68.01 13.25 L 68.01 13.25 Q 68.76 12.14 70.68 12.14 L 70.68 12.14 L 70.68 12.14 Q 72.08 12.14 72.79 12.72 L 72.79 12.72 L 72.79 12.72 Q 73.5 13.3 73.73 14.35 L 73.73 14.35 L 73.73 14.35 Q 73.96 15.4 73.96 17.18 L 73.96 17.18 L 73.96 18.12 L 69.4 18.12 L 69.4 20.44 L 69.4 20.44 Q 69.4 21.5 69.71 21.97 L 69.71 21.97 L 69.71 21.97 Q 70.02 22.44 70.7 22.44 L 70.7 22.44 L 70.7 22.44 Q 71.38 22.44 71.62 21.97 L 71.62 21.97 L 71.62 21.97 Q 71.86 21.5 71.86 20.54 L 71.86 20.54 L 71.86 19.84 L 73.94 19.84 L 73.94 20.28 L 73.94 20.28 Q 73.94 22.1 73.16 23.06 L 73.16 23.06 L 73.16 23.06 Q 72.38 24.02 70.68 24.02 L 70.68 24.02 L 70.68 24.02 Z  M 69.4 16.96 L 71.86 16.96 L 71.86 15.92 L 71.86 15.92 Q 71.86 14.74 71.63 14.23 L 71.63 14.23 L 71.63 14.23 Q 71.4 13.72 70.66 13.72 L 70.66 13.72 L 70.66 13.72 Q 70.14 13.72 69.87 13.96 L 69.87 13.96 L 69.87 13.96 Q 69.6 14.2 69.5 14.75 L 69.5 14.75 L 69.5 14.75 Q 69.4 15.3 69.4 16.34 L 69.4 16.34 L 69.4 16.96 L 69.4 16.96 Z " fill="rgb(75,0,204)"/></svg>